<svg width="200" height="200" viewBox="0 0 200 200" fill="none" xmlns="http://www.w3.org/2000/svg">
<path d="M170.312 170.409C170.312 171.4 169.509 172.206 168.518 172.206H147.083C146.093 172.206 145.29 171.404 145.29 170.414V165.913C145.29 164.923 146.093 164.12 147.083 164.12H151.326C152.973 164.12 153.748 162.09 152.519 160.994C149.524 158.317 146.776 155.869 143.978 153.371C143.18 152.66 143.18 151.414 143.978 150.703C145.611 149.236 146.937 148.044 148.276 146.839C148.996 146.188 150.102 146.229 150.771 146.931C153.386 149.676 156.111 152.546 158.858 155.434C159.973 156.607 161.95 155.819 161.95 154.201V148.98C161.95 147.989 162.753 147.187 163.743 147.187H168.463C169.385 147.187 170.147 147.889 170.248 148.801C170.28 149.076 170.298 149.342 170.298 149.608C170.317 156.364 170.312 163.126 170.307 170.405L170.312 170.409Z" fill="#3B3B3B"/>
<path d="M29.8303 169.942C28.8395 169.942 28.0322 169.14 28.0322 168.15V146.729C28.0322 145.739 28.8349 144.936 29.8257 144.936H34.3302C35.321 144.936 36.1237 145.739 36.1237 146.729V150.969C36.1237 152.615 38.1557 153.389 39.252 152.161C41.9308 149.167 44.3803 146.422 46.8802 143.625C47.5912 142.828 48.8388 142.828 49.5498 143.625C51.0177 145.257 52.2103 146.582 53.4167 147.921C54.068 148.64 54.0267 149.745 53.3249 150.414C50.5773 153.027 47.7059 155.75 44.816 158.496C43.6418 159.61 44.4307 161.585 46.05 161.585H51.2745C52.2653 161.585 53.0681 162.388 53.0681 163.378V168.095C53.0681 169.016 52.3662 169.777 51.4534 169.878C51.1782 169.91 50.9122 169.928 50.6461 169.928C43.8849 169.946 37.1191 169.942 29.8349 169.937L29.8303 169.942Z" fill="#3B3B3B"/>
<path d="M199.471 98.7119C200.173 99.4133 200.178 100.55 199.476 101.251L197.357 103.369L184.316 116.401C183.614 117.103 182.481 117.103 181.779 116.401L178.591 113.216C177.889 112.514 177.889 111.382 178.591 110.681L181.591 107.683C182.756 106.518 181.866 104.534 180.219 104.63C176.206 104.854 172.532 105.061 168.789 105.272C167.725 105.331 166.839 104.451 166.899 103.388C167.014 101.196 167.11 99.4179 167.206 97.621C167.257 96.6537 168.069 95.8974 169.036 95.9249C172.83 96.0212 176.784 96.122 180.775 96.2229C182.394 96.2641 183.233 94.3113 182.086 93.1654L178.389 89.4707C177.687 88.7693 177.687 87.6371 178.389 86.9358L181.729 83.5987C182.38 82.9477 183.412 82.9065 184.132 83.4795C184.348 83.6537 184.55 83.8233 184.742 84.0158C189.536 88.7831 194.315 93.5642 199.467 98.7119H199.471Z" fill="#3B3B3B"/>
<path d="M0.528657 101.288C-0.173154 100.587 -0.177741 99.4499 0.52407 98.7486L2.64326 96.6308L15.6841 83.5986C16.3859 82.8973 17.5189 82.8973 18.2207 83.5986L21.4087 86.7845C22.1105 87.4858 22.1105 88.6181 21.4087 89.3194L18.4088 92.3173C17.2437 93.4816 18.1336 95.4665 19.7803 95.3702C23.7939 95.1456 27.4681 94.9393 31.2111 94.7285C32.2753 94.6689 33.1606 95.549 33.1009 96.6125C32.9863 98.8036 32.8899 100.582 32.7936 102.379C32.7431 103.346 31.9312 104.103 30.9634 104.075C27.1699 103.979 23.216 103.878 19.2253 103.777C17.6061 103.736 16.7666 105.689 17.9134 106.835L21.6105 110.529C22.3123 111.231 22.3123 112.363 21.6105 113.064L18.2712 116.401C17.6198 117.052 16.5877 117.094 15.8676 116.521C15.652 116.346 15.4502 116.177 15.2575 115.984C10.4641 111.217 5.68444 106.436 0.533244 101.288H0.528657Z" fill="#3B3B3B"/>
<path d="M29.3994 30.1727C29.3994 29.1826 30.2021 28.3758 31.1929 28.3758H52.628C53.6188 28.3758 54.4215 29.178 54.4215 30.1681V34.6696C54.4215 35.6597 53.6188 36.4619 52.628 36.4619H48.385C46.7383 36.4619 45.9631 38.4926 47.1924 39.5881C50.1877 42.2652 52.9353 44.713 55.7334 47.2112C56.5315 47.9217 56.5315 49.1686 55.7334 49.8791C54.1004 51.346 52.7748 52.5378 51.4354 53.7434C50.7152 54.3943 49.6097 54.353 48.94 53.6517C46.3254 50.9059 43.6008 48.0363 40.8532 45.1485C39.7385 43.975 37.7615 44.7634 37.7615 46.3815V51.6027C37.7615 52.5928 36.9588 53.395 35.968 53.395H31.248C30.326 53.395 29.5645 52.6936 29.4636 51.7814C29.4315 51.5064 29.4132 51.2405 29.4132 50.9747C29.3948 44.2179 29.3994 37.4566 29.404 30.1773L29.3994 30.1727Z" fill="#3B3B3B"/>
<path d="M101.292 199.472C100.59 200.173 99.4522 200.178 98.7504 199.476L96.6312 197.358L83.5903 184.326C82.8885 183.625 82.8885 182.493 83.5903 181.791L86.7783 178.606C87.4801 177.904 88.6131 177.904 89.3149 178.606L92.3148 181.603C93.4799 182.768 95.4661 181.878 95.3697 180.233C95.145 176.222 94.9386 172.55 94.7276 168.81C94.6679 167.746 95.5486 166.861 96.6128 166.921C98.8054 167.036 100.585 167.132 102.383 167.228C103.351 167.279 104.108 168.09 104.08 169.057C103.984 172.848 103.883 176.799 103.782 180.788C103.741 182.406 105.695 183.244 106.842 182.099L110.539 178.404C111.241 177.703 112.374 177.703 113.076 178.404L116.415 181.741C117.066 182.392 117.108 183.423 116.534 184.143C116.36 184.358 116.19 184.56 115.997 184.753C111.227 189.543 106.443 194.319 101.292 199.467V199.472Z" fill="#3B3B3B"/>
<path d="M98.7138 0.528306C99.4156 -0.173038 100.553 -0.177622 101.255 0.523722L103.374 2.64151L116.415 15.6737C117.117 16.375 117.117 17.5073 116.415 18.2086L113.227 21.3944C112.525 22.0958 111.392 22.0958 110.69 21.3944L107.691 18.3965C106.525 17.2322 104.539 18.1215 104.636 19.7671C104.86 23.7781 105.067 27.4498 105.278 31.1903C105.337 32.2538 104.457 33.1385 103.393 33.0789C101.2 32.9643 99.4202 32.8681 97.6221 32.7718C96.6542 32.7214 95.8974 31.91 95.9249 30.9428C96.0212 27.1519 96.1221 23.2005 96.2231 19.2125C96.2643 17.5943 94.3103 16.7555 93.1635 17.9015L89.4664 21.5961C88.7646 22.2975 87.6316 22.2975 86.9298 21.5961L83.5905 18.259C82.9391 17.6081 82.8978 16.5767 83.4712 15.857C83.6455 15.6416 83.8152 15.4399 84.0079 15.2474C88.7784 10.4571 93.5626 5.68066 98.7138 0.53289V0.528306Z" fill="#3B3B3B"/>
<path d="M169.757 29.9894C170.748 29.9894 171.555 30.7916 171.555 31.7817V53.2025C171.555 54.1926 170.753 54.9948 169.762 54.9948H165.257C164.267 54.9948 163.464 54.1926 163.464 53.2025V48.9623C163.464 47.3167 161.432 46.542 160.335 47.7705C157.657 50.7638 155.207 53.5096 152.707 56.3058C151.996 57.1034 150.749 57.1034 150.038 56.3058C148.57 54.6739 147.377 53.3492 146.171 52.0107C145.519 51.291 145.561 50.1863 146.263 49.517C149.01 46.9042 151.882 44.1813 154.771 41.4355C155.946 40.3216 155.157 38.3459 153.538 38.3459H148.313C147.322 38.3459 146.519 37.5437 146.519 36.5536V31.8367C146.519 30.9153 147.221 30.1544 148.134 30.0536C148.409 30.0215 148.675 30.0031 148.941 30.0031C155.703 29.9848 162.468 29.9894 169.753 29.994L169.757 29.9894Z" fill="#3B3B3B"/>
<path d="M53.6878 112.257C54.2382 113.986 54.7382 115.558 55.2703 117.226C55.4859 117.9 55.1373 118.629 54.4767 118.886C52.7566 119.555 51.0869 120.206 49.298 120.903C48.5824 121.182 47.7843 120.807 47.5366 120.082L45.6101 114.412C45.367 113.701 45.8119 112.899 46.5779 112.711C48.4265 112.257 50.1787 111.831 52.0869 111.359C52.775 111.189 53.4722 111.584 53.6878 112.257Z" fill="#3B3B3B"/>
<path d="M55.2562 82.3976L53.6462 87.3941C53.4397 88.0405 52.7196 88.4347 52.0269 88.2468C50.371 87.7975 48.6784 87.3437 46.7748 86.8257C46.0409 86.6286 45.6097 85.8585 45.8391 85.1297L47.6051 79.4456C47.839 78.6892 48.683 78.2996 49.4124 78.6067L54.4902 80.7383C55.1415 81.0133 55.4718 81.7284 55.2562 82.3931V82.3976Z" fill="#3B3B3B"/>
<path d="M78.673 150.776C79.439 148.934 80.1041 147.325 80.7509 145.771C80.9986 145.17 81.6454 144.84 82.2784 144.973C88.8607 146.38 89.3378 145.954 86.6223 153.586C86.3746 154.279 85.6177 154.65 84.9251 154.411C83.1866 153.82 81.4114 153.22 79.4849 152.569C78.7464 152.321 78.3748 151.496 78.673 150.776Z" fill="#3B3B3B"/>
<path d="M71.5172 53.0191C72.5034 54.6739 73.4254 56.2187 74.3841 57.8322C74.7418 58.4281 74.5813 59.1982 74.0171 59.6062L69.9071 62.5766C69.3475 62.98 68.5769 62.8975 68.1182 62.3841L64.3798 58.2035C63.8844 57.6535 63.9807 56.7321 64.6183 56.2599C66.2742 55.0406 67.8613 53.8717 69.5677 52.6157C70.2053 52.1435 71.1181 52.3269 71.5218 53.0099L71.5172 53.0191Z" fill="#3B3B3B"/>
<path d="M145.781 81.1049L150.854 78.9275C151.565 78.625 152.4 78.9963 152.648 79.7435C153.285 81.6458 153.886 83.4519 154.538 85.3909C154.781 86.1198 154.368 86.9036 153.625 87.1099L148.414 88.5813C147.767 88.7647 147.056 88.398 146.818 87.7333C146.244 86.1427 145.675 84.5566 145.042 82.7964C144.804 82.1271 145.125 81.3845 145.781 81.1049Z" fill="#3B3B3B"/>
<path d="M97.4336 43.7412L103.163 43.6083C103.91 43.5899 104.548 44.2546 104.498 45.0431C104.374 46.9867 104.254 48.779 104.131 50.6905C104.085 51.4193 103.461 51.9786 102.732 51.9465L97.7822 51.7402C97.1033 51.7127 96.5529 51.1764 96.5024 50.4934L96.1217 45.1806C96.0666 44.4151 96.663 43.7596 97.4336 43.7412Z" fill="#3B3B3B"/>
<path d="M45.0689 95.6315C47.0092 95.7507 48.821 95.8607 50.7705 95.9844C51.4998 96.0303 52.0594 96.6491 52.0319 97.378L51.8439 102.264C51.8163 102.938 51.2797 103.493 50.5962 103.543L45.1835 103.933C44.4129 103.988 43.757 103.388 43.7432 102.617L43.6423 97.0021C43.6285 96.2182 44.2891 95.5902 45.0734 95.6361L45.0689 95.6315Z" fill="#3B3B3B"/>
<path d="M112.162 146.687L117.071 145.06C117.749 144.836 118.483 145.179 118.745 145.844L120.754 150.969C121.034 151.689 120.658 152.495 119.924 152.734L114.35 154.572C113.607 154.815 112.818 154.379 112.626 153.623L111.277 148.287C111.103 147.604 111.488 146.903 112.158 146.683L112.162 146.687Z" fill="#3B3B3B"/>
<path d="M111.713 52.0289C112.2 50.177 112.64 48.4855 113.112 46.6703C113.31 45.9185 114.099 45.4876 114.837 45.7306C116.713 46.3494 118.484 46.9362 120.351 47.555C121.085 47.7979 121.461 48.6047 121.181 49.3244L119.144 54.4997C118.892 55.1414 118.158 55.4852 117.479 55.2606C115.874 54.7289 114.296 54.2063 112.589 53.6425C111.915 53.4179 111.53 52.7119 111.709 52.0243L111.713 52.0289Z" fill="#3B3B3B"/>
<path d="M147.235 71.4649L142.473 74.2794C141.882 74.6278 141.111 74.472 140.703 73.9127C139.707 72.5513 138.758 71.2449 137.749 69.8605C137.341 69.2967 137.428 68.5128 137.951 68.0544C139.299 66.881 140.639 65.712 142.111 64.4331C142.703 63.9151 143.616 64.016 144.083 64.6531C145.267 66.2713 146.391 67.8115 147.634 69.5076C148.102 70.1493 147.914 71.0569 147.23 71.4603L147.235 71.4649Z" fill="#3B3B3B"/>
<path d="M141.616 136.034C140.184 134.746 138.928 133.623 137.602 132.431C137.088 131.973 137.006 131.198 137.414 130.639C138.359 129.342 139.327 128.013 140.377 126.573C140.795 126 141.593 125.849 142.189 126.229C143.712 127.206 145.193 128.155 146.794 129.177C147.455 129.599 147.615 130.492 147.148 131.116C145.95 132.706 144.822 134.215 143.597 135.842C143.125 136.474 142.207 136.562 141.62 136.034H141.616Z" fill="#3B3B3B"/>
<path d="M69.091 147.013C67.4351 145.798 65.9122 144.68 64.2838 143.483C63.6049 142.984 63.5453 141.989 64.16 141.416C65.5085 140.151 66.77 138.973 68.1323 137.694C68.6048 137.254 69.3203 137.203 69.8387 137.584C70.8891 138.349 72.1322 139.257 73.4991 140.256C74.0633 140.669 74.2193 141.453 73.8523 142.049C72.9303 143.543 72.0358 145.001 71.0313 146.632C70.6185 147.302 69.7194 147.48 69.0864 147.013H69.091Z" fill="#3B3B3B"/>
<path d="M80.2646 47.3579L85.8607 45.5243C86.6038 45.2814 87.3974 45.726 87.5854 46.4824L88.856 51.6576C89.0166 52.3177 88.6405 53.0099 87.9845 53.2345L83.1039 54.9077C82.4251 55.1414 81.682 54.7977 81.4159 54.1284C80.76 52.469 80.1316 50.8784 79.4343 49.1273C79.15 48.4076 79.5307 47.5917 80.2646 47.3533V47.3579Z" fill="#3B3B3B"/>
<path d="M150.748 121.38C148.923 120.614 147.317 119.945 145.694 119.266C145.047 118.996 144.717 118.272 144.937 117.607C145.46 116.012 145.964 114.476 146.51 112.812C146.73 112.147 147.423 111.758 148.102 111.923C149.836 112.34 151.551 112.753 153.436 113.202C154.202 113.385 154.647 114.183 154.404 114.93C153.776 116.846 153.184 118.643 152.556 120.559C152.313 121.302 151.478 121.682 150.753 121.38H150.748Z" fill="#3B3B3B"/>
<path d="M56.1549 135.329C54.9715 133.729 53.8431 132.211 52.6275 130.566C52.1597 129.933 52.3294 129.035 52.9991 128.622C54.577 127.65 56.0769 126.72 57.6824 125.73C58.2833 125.358 59.0677 125.514 59.4805 126.083C60.4713 127.453 61.4162 128.76 62.4208 130.149C62.829 130.708 62.7419 131.487 62.2189 131.946C60.8933 133.11 59.5677 134.274 58.1273 135.535C57.5356 136.053 56.6274 135.957 56.1595 135.324L56.1549 135.329Z" fill="#3B3B3B"/>
<path d="M126.148 140.54C127.511 139.541 128.777 138.615 130.157 137.607C130.717 137.199 131.492 137.277 131.956 137.795C133.121 139.101 134.313 140.43 135.666 141.952C136.194 142.544 136.102 143.465 135.46 143.937C133.818 145.138 132.249 146.284 130.579 147.508C129.937 147.976 129.029 147.792 128.625 147.105C127.671 145.491 126.772 143.978 125.786 142.31C125.433 141.714 125.589 140.948 126.148 140.54Z" fill="#3B3B3B"/>
<path d="M58.3797 64.3461C59.8475 65.5929 61.1915 66.7343 62.5585 67.894C63.1043 68.357 63.1915 69.1638 62.7557 69.7322L59.7466 73.6882C59.343 74.2153 58.5769 74.362 57.9898 74.0045L53.412 71.2128C52.7423 70.8049 52.5588 69.911 53.0175 69.2738C54.1734 67.6786 55.2743 66.1567 56.4119 64.5799C56.8706 63.9473 57.7788 63.8373 58.3751 64.3461H58.3797Z" fill="#3B3B3B"/>
<path d="M135.951 58.5336C134.584 60.0463 133.414 61.3344 132.249 62.6225C131.781 63.1405 130.997 63.2138 130.442 62.7921C129.075 61.7561 127.772 60.7752 126.396 59.7346C125.846 59.3175 125.699 58.5519 126.061 57.9606C126.969 56.4754 127.859 55.0177 128.85 53.395C129.258 52.7303 130.148 52.547 130.781 52.9962C132.414 54.1605 133.997 55.2882 135.74 56.5304C136.396 56.998 136.497 57.9377 135.955 58.5336H135.951Z" fill="#3B3B3B"/>
<path d="M95.3696 154.957C95.5348 152.917 95.6724 151.166 95.8192 149.337C95.8788 148.622 96.4889 148.076 97.2044 148.099C98.8466 148.154 100.406 148.205 102.03 148.26C102.718 148.283 103.278 148.819 103.328 149.507L103.713 154.833C103.768 155.599 103.172 156.254 102.406 156.273C100.548 156.318 98.7273 156.364 96.7503 156.41C95.9522 156.428 95.31 155.75 95.3742 154.952L95.3696 154.957Z" fill="#3B3B3B"/>
<path d="M100.154 129.773C93.8743 128.819 88.5671 126.885 83.6086 123.662C81.6041 122.36 81.4527 120.93 82.4848 119.055C84.3563 115.659 87.2506 113.903 91.1175 113.876C97.1448 113.834 103.181 113.733 109.204 113.944C111.066 114.009 113.144 114.641 114.695 115.659C119.41 118.767 119.392 122.521 114.401 124.84C109.869 126.944 104.92 128.159 100.154 129.768V129.773Z" fill="white"/>
<path d="M99.9979 86.9632C105.039 86.9403 109.089 90.9283 109.016 95.8378C108.943 100.646 105.08 104.41 100.163 104.465C95.1127 104.524 91.0945 100.568 91.1725 95.6086C91.2459 90.7908 95.1311 86.9862 100.002 86.9632H99.9979Z" fill="white"/>
<path d="M100.09 138.332C121.468 138.332 138.799 121.013 138.799 99.6484C138.799 78.2839 121.468 60.9645 100.09 60.9645C78.7108 60.9645 61.3799 78.2839 61.3799 99.6484C61.3799 121.013 78.7108 138.332 100.09 138.332Z" fill="#36ADCC"/>
<path d="M100.025 105.647C105.444 105.647 109.837 101.258 109.837 95.8424C109.837 90.4272 105.444 86.0373 100.025 86.0373C94.6067 86.0373 90.2139 90.4272 90.2139 95.8424C90.2139 101.258 94.6067 105.647 100.025 105.647Z" fill="white"/>
<path d="M100.511 131.01C112.443 131.01 122.116 126.401 122.116 120.715C122.116 115.029 112.443 110.419 100.511 110.419C88.5795 110.419 78.9067 115.029 78.9067 120.715C78.9067 126.401 88.5795 131.01 100.511 131.01Z" fill="white"/>
<path d="M114.062 106.207C121.91 109.15 126.607 114.577 126.483 123.25C126.461 124.818 125.506 126.807 124.318 127.861C110.755 139.926 89.6224 140.032 76.0861 128.031C74.6779 126.779 73.6367 124.3 73.655 122.402C73.7422 114.036 78.7282 109.062 86.1408 106.207C81.5768 95.4069 82.7648 87.6142 89.6682 82.2739C95.613 77.6762 104.209 77.5799 110.213 82.0401C117.351 87.3437 118.612 95.0402 114.057 106.211L114.062 106.207ZM99.8055 129.773C105.897 129.773 110.172 127.728 114.401 124.845C119.727 122.37 119.392 118.262 113.695 115.054C112.516 114.389 111.186 114.022 109.833 113.972C103.604 113.729 97.356 113.839 91.1177 113.88C87.2509 113.908 84.3565 115.663 82.485 119.06C81.4529 120.935 81.6043 122.365 83.6088 123.667C88.5674 126.885 93.7965 129.777 99.8055 129.777V129.773ZM99.9936 86.9633C95.1222 86.9862 91.237 90.7909 91.1636 95.6086C91.0902 100.564 95.1038 104.52 100.154 104.465C105.071 104.41 108.934 100.646 109.007 95.8378C109.085 90.9284 105.03 86.9403 99.989 86.9633H99.9936Z" fill="#3B3B3B"/>
<path d="M149.304 96.7867L154.79 96.1953C155.556 96.1128 156.248 96.7133 156.267 97.5018C156.317 99.5095 156.363 101.407 156.414 103.452C156.432 104.217 155.804 104.845 155.038 104.827L149.625 104.703C148.955 104.689 148.382 104.13 148.35 103.424C148.272 101.737 148.189 100.055 148.102 98.1848C148.07 97.4743 148.597 96.86 149.304 96.7867Z" fill="#3B3B3B"/>
</svg>
